<svg viewBox="0 0 1024 1024" version="1.1" xmlns="http://www.w3.org/2000/svg"><path d="M590.75549317 165.93066406a49.43847656 49.43847656 0 0 1 43.85192871 26.62261963L672.18066406 264.80761719H833.35009766a74.15771484 74.15771484 0 0 1 74.15771484 74.15771484v444.94628906a74.15771484 74.15771484 0 0 1-74.15771484 74.15771485H190.64990234a74.15771484 74.15771484 0 0 1-74.15771484-74.15771485V338.96533203a74.15771484 74.15771484 0 0 1 74.15771484-74.15771484h185.88867188l37.57324219-72.2543335A49.43847656 49.43847656 0 0 1 457.96374511 165.93066406h132.79174806zM512 338.96533203a222.47314453 222.47314453 0 1 0 0 444.94628906 222.47314453 222.47314453 0 0 0 0-444.94628906z m0 74.15771484a148.31542969 148.31542969 0 1 1 0 296.63085938 148.31542969 148.31542969 0 0 1 0-296.63085938z"></path><path d="M264.80761719 190.64990234h24.71923828a49.43847656 49.43847656 0 0 1 49.43847656 49.43847657H215.36914062a49.43847656 49.43847656 0 0 1 49.43847657-49.43847657z"></path></svg>