<svg viewBox="0 0 1024 1024" version="1.1" xmlns="http://www.w3.org/2000/svg"><path d="M174.5 174.5h675a37.50000029 37.50000029 0 0 1 37.50000029 37.50000029v599.99999942a37.50000029 37.50000029 0 0 1-37.50000029 37.50000029h-225c0-25.12500029-1.9125-50.175-5.7375-74.99999971H811.99999971V249.49999971H212.00000029v118.2375A491.24999971 491.24999971 0 0 0 136.99999971 361.99999971V212.00000029a37.50000029 37.50000029 0 0 1 37.50000029-37.50000029z m375.00000029 675h-75.00000058a337.5 337.5 0 0 0-337.5-337.5v-74.99999971c227.8125 0 412.49999971 184.68749971 412.50000058 412.49999971z m-150.00000029 0H324.50000029a187.49999971 187.49999971 0 0 0-187.50000058-187.49999971v-75.00000058a262.50000029 262.50000029 0 0 1 262.50000029 262.50000029z m-150.00000029 0H136.99999971v-112.5a112.5 112.5 0 0 1 112.5 112.5z"></path></svg>