<svg viewBox="0 0 1024 1024" version="1.1" xmlns="http://www.w3.org/2000/svg"><path d="M512 648.245q56.3037503 0 96.255-39.9512497t39.9512497-96.255-39.9512497-96.255-96.255-39.9512497-96.255 39.9512497-39.9512497 96.255 39.9512497 96.255 96.255 39.9512497zM800.8037503 550.13l81.72375 63.58875q12.7100003 9.0675 3.6425003 25.4199997l-78.12 134.4237503q-7.2849997 12.7100003-23.59875 7.2849997l-96.255-38.13q-38.13 27.2412503-65.40999969 38.13l-14.53125 101.71875q-3.6425003 16.3524997-18.17375031 16.35249969l-156.20124969 0q-14.53125 0-18.17375031-16.35249969l-14.53125-101.71875q-34.52625-14.53125-65.40999969-38.13l-96.255 38.13q-16.3524997 5.46375-23.59875-7.2849997l-78.12-134.4237503q-9.0675-16.3524997 3.6425003-25.4199997l81.72375-63.58875q-1.8212497-12.7100003-1.8212497-38.13t1.8212497-38.13l-81.72375-63.58875q-12.7100003-9.0675-3.6425003-25.4199997l78.12-134.4237503q7.2849997-12.7100003 23.59875-7.2849997l96.255 38.13q38.13-27.2412503 65.40999969-38.13l14.53125-101.71875q3.6425003-16.3524997 18.17375031-16.35249969l156.20124969 0q14.53125 0 18.17375031 16.35249969l14.53125 101.71875q34.52625 14.53125 65.40999969 38.13l96.255-38.13q16.3524997-5.46375 23.59875 7.2849997l78.12 134.4237503q9.0675 16.3524997-3.6425003 25.4199997l-81.72375 63.58875q1.8212497 12.7100003 1.8212497 38.13t-1.8212497 38.13z"></path></svg>