<svg viewBox="0 0 1024 1024" version="1.1" xmlns="http://www.w3.org/2000/svg"><path d="M512 169.984l0 180.010667-89.984-89.984zM182.016 128l713.984 713.984-54.016 54.016-88.021333-88.021333q-73.984 57.984-155.989333 77.994667l0-88.021333q50.005333-13.994667 96-50.005333l-182.016-182.016 0 288-214.016-214.016-169.984 0 0-256 201.984 0-201.984-201.984zM809.984 512q0-102.016-59.008-180.010667t-153.002667-105.984l0-88.021333q130.005333 27.989333 214.016 132.992t84.010667 240.981333q0 96-43.989333 178.005333l-64-66.005333q22.016-54.016 22.016-112zM704 512q0 18.005333-2.005333 25.984l-104.021333-104.021333 0-93.994667q105.984 52.010667 105.984 171.989333z"></path></svg>